<svg width="209" height="48" viewBox="0 0 209 48" fill="none" xmlns="http://www.w3.org/2000/svg">
<path d="M58.6194 39.1485H50.9028V47.6312H47.2715V26.8927H60.0947V30.2404H50.9028V35.886H58.6194V39.1485Z" fill="white"/>
<path d="M82.2908 37.2478C82.2908 43.5459 78.1488 47.9716 72.1911 47.9716C66.2618 47.9716 62.1765 43.5743 62.1765 37.2478C62.1765 30.9496 66.2902 26.5239 72.2195 26.5239C78.1488 26.5239 82.2908 30.9212 82.2908 37.2478ZM78.4609 37.2478C78.4609 32.822 76.0211 30.0134 72.2195 30.0134C68.4179 30.0134 65.9781 32.822 65.9781 37.2478C65.9781 41.6735 68.4179 44.4821 72.2195 44.4821C76.0211 44.4821 78.4609 41.6167 78.4609 37.2478Z" fill="white"/>
<path d="M89.3019 47.6312H85.6706V26.8927H93.5858C98.2952 26.8927 101.047 29.2758 101.047 33.3611C101.047 36.1413 99.7421 38.1272 97.3023 39.1202L101.246 47.6312H97.2739L93.756 39.8862H89.3019V47.6312ZM89.3019 30.1269V36.6804H93.5858C95.8838 36.6804 97.2455 35.4604 97.2455 33.3611C97.2455 31.29 95.8838 30.1269 93.5858 30.1269H89.3019Z" fill="white"/>
<path d="M108.194 47.6312H104.676V26.8927H108.194L114.889 43.4041L121.585 26.8927H125.159V47.6312H121.641V41.2479C121.641 37.0775 121.641 35.8576 121.84 34.3824L116.563 47.6312H113.216L107.967 34.4108C108.166 35.659 108.194 37.6166 108.194 40.1982V47.6312Z" fill="white"/>
<path d="M128.336 32.6802C128.336 29.0488 131.343 26.5239 135.712 26.5239C139.911 26.5239 142.578 28.8502 142.691 32.5951H139.06C138.975 30.8078 137.698 29.7581 135.655 29.7581C133.414 29.7581 131.967 30.8361 131.967 32.5667C131.967 34.0419 132.762 34.8647 134.492 35.2619L137.755 35.9711C141.301 36.7371 143.032 38.5528 143.032 41.6451C143.032 45.5034 140.024 48 135.457 48C131.031 48 128.137 45.6453 128.052 41.9288H131.684C131.712 43.6878 133.131 44.7374 135.457 44.7374C137.868 44.7374 139.4 43.6878 139.4 41.9572C139.4 40.567 138.691 39.7443 136.989 39.3755L133.698 38.6379C130.18 37.8719 128.336 35.8576 128.336 32.6802Z" fill="white"/>
<path d="M160.964 40.4819H156.397V47.6312H152.765V26.8927H160.964C165.135 26.8927 167.83 29.6162 167.83 33.6731C167.83 37.6733 165.106 40.4819 160.964 40.4819ZM160.255 30.1269H156.397V37.2478H160.198C162.695 37.2478 164.028 35.9144 164.028 33.6448C164.028 31.3752 162.667 30.1269 160.255 30.1269Z" fill="#1FDE91"/>
<path d="M174.516 47.6312H170.885V26.8927H178.8C183.509 26.8927 186.261 29.2758 186.261 33.3611C186.261 36.1413 184.956 38.1272 182.516 39.1202L186.46 47.6312H182.488L178.97 39.8862H174.516V47.6312ZM174.516 30.1269V36.6804H178.8C181.098 36.6804 182.459 35.4604 182.459 33.3611C182.459 31.29 181.098 30.1269 178.8 30.1269H174.516Z" fill="#1FDE91"/>
<path d="M208.757 37.2478C208.757 43.5459 204.615 47.9716 198.658 47.9716C192.728 47.9716 188.643 43.5743 188.643 37.2478C188.643 30.9496 192.757 26.5239 198.686 26.5239C204.615 26.5239 208.757 30.9212 208.757 37.2478ZM204.928 37.2478C204.928 32.822 202.488 30.0134 198.686 30.0134C194.885 30.0134 192.445 32.822 192.445 37.2478C192.445 41.6735 194.885 44.4821 198.686 44.4821C202.488 44.4821 204.928 41.6167 204.928 37.2478Z" fill="#1FDE91"/>
<path d="M53.5885 21.3626L47.2904 0.368811H52.0849L54.8368 9.47559C55.2056 10.7239 55.546 11.9722 55.8865 14.0432C56.2269 11.9722 56.5674 10.7806 56.9362 9.47559L59.5178 0.368811H64.6528L67.121 9.47559C67.4614 10.7522 67.8018 12.0289 68.1706 14.0432C68.5962 11.9154 68.9083 10.7522 69.2771 9.53233L72.0857 0.368811H76.7667L70.3551 21.3626H65.8727L62.0427 7.5748L58.0993 21.3626H53.5885Z" fill="white"/>
<path d="M87.8973 14.3836H83.9822V21.3626H79.3863V0.368811H87.8973C92.1811 0.368811 95.0465 3.17744 95.0465 7.37621C95.0465 11.575 92.1811 14.3836 87.8973 14.3836ZM86.8759 4.4541H83.9822V10.2983H86.8759C89.0888 10.2983 90.1952 9.33374 90.1952 7.37621C90.1952 5.41868 89.0888 4.4541 86.8759 4.4541Z" fill="white"/>
<path d="M111.878 21.3626H96.4734V17.0504L105.835 4.62432H96.7571V0.368811H111.595V4.48247L102.091 17.1071H111.878V21.3626Z" fill="white"/>
<path d="M134.032 10.8374C134.032 17.249 129.805 21.7031 123.705 21.7031C117.634 21.7031 113.464 17.2774 113.464 10.8657C113.464 4.4541 117.663 0 123.734 0C129.833 0 134.032 4.42573 134.032 10.8374ZM129.181 10.8374C129.181 6.83718 127.138 4.42573 123.762 4.42573C120.358 4.42573 118.315 6.83718 118.315 10.8374C118.315 14.8659 120.358 17.2774 123.762 17.2774C127.138 17.2774 129.181 14.8092 129.181 10.8374Z" fill="white"/>
<path d="M156.639 10.8374C156.639 17.249 152.412 21.7031 146.313 21.7031C140.242 21.7031 136.071 17.2774 136.071 10.8657C136.071 4.4541 140.27 0 146.341 0C152.441 0 156.639 4.42573 156.639 10.8374ZM151.788 10.8374C151.788 6.83718 149.745 4.42573 146.369 4.42573C142.965 4.42573 140.922 6.83718 140.922 10.8374C140.922 14.8659 142.965 17.2774 146.369 17.2774C149.745 17.2774 151.788 14.8092 151.788 10.8374Z" fill="white"/>
<path d="M164.296 21.3626H159.842V0.368811H164.296L170.537 16.0291L176.807 0.368811H181.318V21.3626H176.864V16.9653C176.864 12.4261 176.864 11.4331 177.09 9.87277L172.636 21.3626H168.438L164.012 9.87277C164.267 11.4331 164.296 13.1921 164.296 15.49V21.3626Z" fill="white"/>
<path d="M39.4023 47.631H0V8.22864H7.88086V0.347778H39.4023V47.631Z" fill="#1FDE91"/>
<path d="M31.5205 16.1085H15.7637V23.9894H23.6406V31.8702H15.7637V39.7501H7.88281V16.1085H15.7598V8.22864H31.5205V16.1085Z" fill="#083EA7"/>
</svg>
